<?xml version="1.0" encoding="UTF-8" standalone="no"?>
<!-- Created with Inkscape (http://www.inkscape.org/) -->

<svg
   width="71"
   height="71"
   viewBox="0 0 71 71"
   version="1.1"
   id="svg1"
   inkscape:version="1.3.2 (091e20e, 2023-11-25)"
   sodipodi:docname="HotbarSlot1Selected.svg"
   xml:space="preserve"
   xmlns:inkscape="http://www.inkscape.org/namespaces/inkscape"
   xmlns:sodipodi="http://sodipodi.sourceforge.net/DTD/sodipodi-0.dtd"
   xmlns="http://www.w3.org/2000/svg"
   xmlns:svg="http://www.w3.org/2000/svg"><sodipodi:namedview
     id="namedview1"
     pagecolor="#161717"
     bordercolor="#000000"
     borderopacity="0.25"
     inkscape:showpageshadow="2"
     inkscape:pageopacity="0.0"
     inkscape:pagecheckerboard="0"
     inkscape:deskcolor="#d1d1d1"
     inkscape:document-units="px"
     inkscape:zoom="2.4899082"
     inkscape:cx="50.001843"
     inkscape:cy="32.53132"
     inkscape:window-width="1312"
     inkscape:window-height="449"
     inkscape:window-x="170"
     inkscape:window-y="204"
     inkscape:window-maximized="0"
     inkscape:current-layer="layer1"
     showguides="false"
     labelstyle="default"><sodipodi:guide
       position="70.938082,70.852212"
       orientation="0,-1"
       id="guide1"
       inkscape:locked="false" /><sodipodi:guide
       position="0.23562957,71"
       orientation="1,0"
       id="guide2"
       inkscape:locked="false" /><sodipodi:guide
       position="74.673337,146.54163"
       orientation="0,-1"
       id="guide3"
       inkscape:locked="false" /></sodipodi:namedview><defs
     id="defs1" /><g
     inkscape:label="Layer 1"
     inkscape:groupmode="layer"
     id="layer1"><path
       d="m -5.079683,17.785945 q -2.116535,0 -3.598109,-1.481574 -1.481574,-1.481574 -1.481574,-3.598109 0,-2.116534 1.481574,-3.5981083 1.481574,-1.481575 3.598109,-1.481575 2.116534,0 3.598108,1.481575 Q 0,10.589728 0,12.706262 q 0,2.116535 -1.481575,3.598109 -1.481574,1.481574 -3.598108,1.481574 z M 2.49751,11.901979 Q 2.243526,9.5737907 0.761952,7.7959017 -0.719622,6.0180127 -2.920817,5.3830527 L 1.566235,0.85366867 h -11.894924 q -1.354582,0 -2.285857,-0.931275 -0.931275,-0.93127497 -0.931275,-2.28585697 0,-0.846614 0.444472,-1.587401 0.444472,-0.740787 1.164094,-1.206425 L 8.63546,-17.475519 q 0.761953,-0.465638 1.608567,-0.232819 0.846614,0.232819 1.312252,0.994771 0.465637,0.761953 0.232818,1.587401 -0.232818,0.825448 -0.95244,1.291086 l -15.916339,9.6090657 h 15.408371 q 1.354582,0 2.285857,0.931276 0.931275,0.931275 0.931275,2.285857 0,0.76195197 -0.190488,1.50273897 -0.190489,0.74078703 -0.740787,1.29108603 z"
       id="path1"
       style="fill:#ffffff;fill-opacity:1;stroke-width:0.0415748;stroke-dasharray:none" /></g></svg>
