<?xml version="1.0" encoding="UTF-8" standalone="no"?>
<!-- Created with Inkscape (http://www.inkscape.org/) -->

<svg
   width="71"
   height="71"
   viewBox="0 0 71 71"
   version="1.1"
   id="svg1"
   inkscape:version="1.3.2 (091e20e, 2023-11-25)"
   sodipodi:docname="HotbarSlot2Selected.svg"
   xml:space="preserve"
   xmlns:inkscape="http://www.inkscape.org/namespaces/inkscape"
   xmlns:sodipodi="http://sodipodi.sourceforge.net/DTD/sodipodi-0.dtd"
   xmlns="http://www.w3.org/2000/svg"
   xmlns:svg="http://www.w3.org/2000/svg"><sodipodi:namedview
     id="namedview1"
     pagecolor="#161717"
     bordercolor="#000000"
     borderopacity="0.25"
     inkscape:showpageshadow="2"
     inkscape:pageopacity="0.0"
     inkscape:pagecheckerboard="0"
     inkscape:deskcolor="#d1d1d1"
     inkscape:document-units="px"
     inkscape:zoom="6.3286241"
     inkscape:cx="39.424051"
     inkscape:cy="19.751529"
     inkscape:window-width="1312"
     inkscape:window-height="595"
     inkscape:window-x="99"
     inkscape:window-y="38"
     inkscape:window-maximized="0"
     inkscape:current-layer="layer1"
     showguides="false"
     labelstyle="default"><sodipodi:guide
       position="70.938082,70.852212"
       orientation="0,-1"
       id="guide1"
       inkscape:locked="false" /><sodipodi:guide
       position="0.23562957,71"
       orientation="1,0"
       id="guide2"
       inkscape:locked="false" /><sodipodi:guide
       position="74.673337,146.54163"
       orientation="0,-1"
       id="guide3"
       inkscape:locked="false" /></sodipodi:namedview><defs
     id="defs1" /><g
     inkscape:label="Layer 1"
     inkscape:groupmode="layer"
     id="layer1"><path
       d="m 20.976361,47.462833 h 2.702714 L 45.610097,25.531812 42.907383,22.829098 20.976361,44.760119 Z m -3.213572,3.213573 V 43.425233 L 46.022138,15.178309 q 0.485953,-0.441391 1.073136,-0.682145 0.587184,-0.240754 1.231515,-0.240754 0.644279,0 1.248335,0.228703 0.604001,0.228649 1.069548,0.727136 l 2.616214,2.649153 q 0.498542,0.465548 0.710695,1.071425 0.212205,0.605821 0.212205,1.211644 0,0.646205 -0.220722,1.23339 -0.22067,0.587236 -0.702178,1.07319 L 25.013963,50.676406 Z M 50.990834,20.138758 48.300439,17.448363 Z m -6.755795,4.065398 -1.327656,-1.375058 2.702714,2.702714 z"
       id="path1-7"
       style="opacity:1;fill:#ffffff;fill-opacity:1;stroke:none;stroke-width:0.0535605;stroke-opacity:1" /></g></svg>
