<?xml version="1.0" encoding="UTF-8" standalone="no"?>
<!-- Created with Inkscape (http://www.inkscape.org/) -->

<svg
   width="71"
   height="71"
   viewBox="0 0 71 71"
   version="1.1"
   id="svg1"
   inkscape:version="1.3.2 (091e20e, 2023-11-25)"
   sodipodi:docname="HotbarSlot7Selected.svg"
   xml:space="preserve"
   xmlns:inkscape="http://www.inkscape.org/namespaces/inkscape"
   xmlns:sodipodi="http://sodipodi.sourceforge.net/DTD/sodipodi-0.dtd"
   xmlns="http://www.w3.org/2000/svg"
   xmlns:svg="http://www.w3.org/2000/svg"><sodipodi:namedview
     id="namedview1"
     pagecolor="#161717"
     bordercolor="#000000"
     borderopacity="0.25"
     inkscape:showpageshadow="2"
     inkscape:pageopacity="0.0"
     inkscape:pagecheckerboard="0"
     inkscape:deskcolor="#d1d1d1"
     inkscape:document-units="px"
     inkscape:zoom="5.5288949"
     inkscape:cx="14.379004"
     inkscape:cy="37.710972"
     inkscape:window-width="1512"
     inkscape:window-height="860"
     inkscape:window-x="0"
     inkscape:window-y="38"
     inkscape:window-maximized="0"
     inkscape:current-layer="g13"
     showguides="false"
     labelstyle="default"><sodipodi:guide
       position="70.938082,70.852212"
       orientation="0,-1"
       id="guide1"
       inkscape:locked="false" /><sodipodi:guide
       position="0.23562957,71"
       orientation="1,0"
       id="guide2"
       inkscape:locked="false" /><sodipodi:guide
       position="74.673337,146.54163"
       orientation="0,-1"
       id="guide3"
       inkscape:locked="false" /></sodipodi:namedview><defs
     id="defs1" /><g
     inkscape:label="Layer 1"
     inkscape:groupmode="layer"
     id="layer1"
     style="display:inline"><g
       id="g13"
       transform="matrix(1.4619503,-0.20044386,0.20044386,1.4619503,-18.844771,-6.5472899)"
       style="opacity:0.65"><g
         id="g9"
         transform="translate(-4.5565919,2.4735785)" /><path
         d="M 31.77,44.67833 Q 29.467941,44.362703 27.577414,43.212269 25.686887,42.061838 24.402328,40.369066 23.11777,38.676295 22.518636,36.545889 21.919503,34.415484 22.235133,32.113425 l 2.455531,0.33667 q -0.492383,3.591214 1.666205,6.435769 2.158589,2.844555 5.749802,3.336936 3.591214,0.492381 6.435771,-1.666207 2.844555,-2.158588 3.336936,-5.7498 0.492381,-3.591214 -1.666211,-6.43577 -2.158586,-2.844556 -5.749799,-3.336936 l -0.184165,-0.02525 1.642116,2.163955 -1.962957,1.544589 -4.237721,-5.584402 5.584405,-4.23772 1.474785,2.01593 -2.16396,1.642116 0.184168,0.02525 q 2.30206,0.315628 4.192588,1.466062 1.890526,1.150431 3.175083,2.843204 1.284557,1.692772 1.883692,3.823177 0.599134,2.130404 0.283505,4.432462 -0.31563,2.302061 -1.46606,4.192588 -1.150433,1.890526 -2.843205,3.175086 -1.692772,1.284558 -3.823177,1.88369 Q 34.072061,44.993958 31.77,44.67833 Z"
         id="path1-8"
         style="opacity:1;fill:#ffffff;fill-opacity:1;stroke:#000000;stroke-width:0.590893;stroke-dasharray:none;stroke-opacity:1" /></g></g></svg>
