<?xml version="1.0" encoding="UTF-8" standalone="no"?>
<!-- Created with Inkscape (http://www.inkscape.org/) -->

<svg
   width="71"
   height="71"
   viewBox="0 0 71 71"
   version="1.1"
   id="svg1"
   inkscape:version="1.3.2 (091e20e, 2023-11-25)"
   sodipodi:docname="HotbarSlot1Selected.svg"
   xml:space="preserve"
   xmlns:inkscape="http://www.inkscape.org/namespaces/inkscape"
   xmlns:sodipodi="http://sodipodi.sourceforge.net/DTD/sodipodi-0.dtd"
   xmlns="http://www.w3.org/2000/svg"
   xmlns:svg="http://www.w3.org/2000/svg"><sodipodi:namedview
     id="namedview1"
     pagecolor="#161717"
     bordercolor="#000000"
     borderopacity="0.25"
     inkscape:showpageshadow="2"
     inkscape:pageopacity="0.0"
     inkscape:pagecheckerboard="0"
     inkscape:deskcolor="#d1d1d1"
     inkscape:document-units="px"
     inkscape:zoom="2.8114634"
     inkscape:cx="5.5131431"
     inkscape:cy="32.723172"
     inkscape:window-width="1312"
     inkscape:window-height="449"
     inkscape:window-x="170"
     inkscape:window-y="158"
     inkscape:window-maximized="0"
     inkscape:current-layer="layer1"
     showguides="false"
     labelstyle="default"><sodipodi:guide
       position="70.938082,70.852212"
       orientation="0,-1"
       id="guide1"
       inkscape:locked="false" /><sodipodi:guide
       position="0.23562957,71"
       orientation="1,0"
       id="guide2"
       inkscape:locked="false" /><sodipodi:guide
       position="74.673337,146.54163"
       orientation="0,-1"
       id="guide3"
       inkscape:locked="false" /></sodipodi:namedview><defs
     id="defs1" /><g
     inkscape:label="Layer 1"
     inkscape:groupmode="layer"
     id="layer1"><path
       d="m 28.119128,50.637343 q -1.976944,0 -3.362754,-1.383868 -1.38581,-1.383869 -1.38581,-3.360812 0,-1.976943 1.383869,-3.362753 1.383868,-1.38581 3.360811,-1.38581 1.976943,0 3.362753,1.383868 1.38581,1.383825 1.38581,3.360812 0,1.976942 -1.383868,3.362752 -1.383869,1.385811 -3.360811,1.385811 z M 35.65873,44.639284 Q 35.366638,42.69751 34.155073,41.167315 32.943552,39.637119 31.164415,38.956664 l 5.088597,-5.081996 H 23.197958 q -1.214887,0 -2.031443,-0.846631 -0.816556,-0.846633 -0.816556,-2.078091 0,-0.769649 0.395009,-1.416922 0.395008,-0.647272 1.02899,-1.072142 L 41.749694,16.268944 q 0.627379,-0.375073 1.324405,-0.187537 0.697069,0.187537 1.072142,0.806588 0.375073,0.619051 0.195822,1.302829 -0.179208,0.68378 -0.763437,1.058853 l -16.27476,10.226948 h 16.088907 q 1.199137,0 2.023546,0.824409 0.824453,0.824409 0.824453,2.023547 0,0.697802 -0.16099,1.37623 -0.161007,0.678428 -0.655558,1.172987 z"
       id="path1-8"
       style="fill:#ffffff;fill-opacity:1;stroke-width:0.0431515;opacity:1" /></g></svg>
